inDegrees=yes
name=ik_MT_2026-06-18_12h51_01210270-000-000_orientations
DataType=double
version=3
OpenSimVersion=4.5
endheader
time	pelvis_tilt	pelvis_list	pelvis_rotation	pelvis_tx	pelvis_ty	pelvis_tz	hip_flexion_r	hip_adduction_r	hip_rotation_r	knee_angle_r	knee_angle_r_beta	ankle_angle_r	subtalar_angle_r	mtp_angle_r	hip_flexion_l	hip_adduction_l	hip_rotation_l	knee_angle_l	knee_angle_l_beta	ankle_angle_l	subtalar_angle_l	mtp_angle_l	lumbar_extension	lumbar_bending	lumbar_rotation	arm_flex_r	arm_add_r	arm_rot_r	elbow_flex_r	pro_sup_r	wrist_flex_r	wrist_dev_r	arm_flex_l	arm_add_l	arm_rot_l	elbow_flex_l	pro_sup_l	wrist_flex_l	wrist_dev_l
21.425	-2.855101467826791	-3.97302463707484	-96.79910686757452	0	0.9399999999999999	0	-7.701524174425851	1.695104917913368	-0.5508237187543917	4.794926582474513	0.08368725625557968	8.422530933050487	0	0	26.10408834779598	-10.12635613707842	-3.050243383133783	9.945377443089736	0.1735795817354909	-0.09370564050239402	0	0	-11.72944239936599	3.988957952658571	9.942846621399696	0	-14.99977564927542	0	75.00017579717976	45.00000025534055	0	0	0	-14.99977564927542	0	75.00017579717976	45.00000025534055	0	0
21.45	-2.932137826747907	-3.944750822248139	-97.43154998169057	0	0.9399999999999999	0	-8.745550515066491	1.532814544897316	-0.453001669627807	5.818516752412693	0.1015522749120492	10.20662358553784	0	0	25.7589074687548	-9.98212634150207	-0.1825491143098905	5.144040594254559	0.08978044522598776	0.2303101146812537	0	0	-11.61504191289741	3.873028799611079	10.24577158482321	0	-14.99977579021352	0	75.00017579724339	45.00000025534055	0	0	0	-14.99977579021352	0	75.00017579724339	45.00000025534055	0	0
21.475	-2.902755018983906	-4.033666460566753	-98.03827408428423	0	0.9399999999999999	0	-9.819292700169282	1.163207179324961	-0.4254624122934427	7.085744283411441	0.1236695676998959	11.67406068368028	0	0	25.20344542767724	-10.43364267817446	2.546905117975701	1.822025341868267	0.03180034127037654	0.4589290386452905	0	0	-11.69161943955822	3.588018384073329	10.59744941852669	0	-14.99977579302388	0	75.00017579725426	45.00000025534055	0	0	0	-14.99977579302388	0	75.00017579725426	45.00000025534055	0	0
21.5	-2.748248136913206	-4.056092512309294	-98.656269589739	0	0.9399999999999999	0	-10.62099297920414	0.5920963673209402	-0.3480482857125977	8.780935863283318	0.1532562422207445	13.11676154528474	0	0	24.83042259169191	-10.37426086935117	4.315148341299072	0.4871350250412335	0.008502110088754551	1.078201832758042	0	0	-11.59117732429018	3.098818776803961	10.98152253201972	0	-14.99977615215256	0	75.00017579739377	45.00000025534055	0	0	0	-14.99977615215256	0	75.00017579739377	45.00000025534055	0	0
21.525	-2.558342710484625	-4.143386878075546	-99.10291780310423	0	0.9399999999999999	0	-11.34176636623308	-0.08800144279171547	-0.2732619083715191	10.8104767540671	0.1886784130687802	14.59079344690772	0	0	24.2958436723241	-9.805715355377373	5.26375159587126	0.5512688533419142	0.009621456554510148	1.429340445041921	0	0	-11.22878958925243	2.494555379006109	11.20515519011723	0	-14.9997768048401	0	75.00017579763512	45.00000025534055	0	0	0	-14.9997768048401	0	75.00017579763512	45.00000025534055	0	0
21.55	-2.3242377025629	-4.170705658290614	-99.50491609351634	0	0.9399999999999999	0	-11.77622944544374	-1.059678109036061	-0.2407835975843168	13.33027115952598	0.2326571219173706	16.01303617405885	0	0	23.6765948205844	-9.685674139443803	5.471778663645522	1.941541156515989	0.03388628574418257	0.2415320452892236	0	0	-10.54521322446528	1.824171423737393	11.34584062344008	0	-14.99977784972531	0	75.00017579801997	45.00000025534055	0	0	0	-14.99977784972531	0	75.00017579801997	45.00000025534055	0	0
21.575	-2.01562557841658	-4.095339480394745	-99.68070870501454	0	0.9399999999999999	0	-11.79358651125536	-2.339197676712868	-0.7015484352708342	16.52655582374631	0.2884428131390167	15.69584772201278	0	0	22.63482173063213	-8.78241921608792	4.853296515840272	3.319219599213384	0.05793131060300014	-2.503763704590591	0	0	-9.227817204979194	1.100930353808213	11.27754574865381	0	-14.99977881338455	0	75.00017579837484	45.00000025534055	0	0	0	-14.99977881338455	0	75.00017579837484	45.00000025534055	0	0
21.6	-1.381156080559358	-3.296893345839369	-99.45849616102404	0	0.9399999999999999	0	-10.44489309384895	-4.233558949448917	-2.120255364606236	20.68497352651281	0.3610208937255111	11.17596020261488	0	0	21.50266623075032	-7.565690281190721	3.837452962884025	2.131355213168769	0.03719916599934063	-6.388847303974336	0	0	-6.547175435621448	0.2359320891018041	10.92627406762144	0	-14.9997798447302	0	75.00017579875203	45.00000025534055	0	0	0	-14.9997798447302	0	75.00017579875203	45.00000025534055	0	0
